<?xml version="1.0" encoding="utf-8"?>
<!-- Generator: Adobe Illustrator 18.0.0, SVG Export Plug-In . SVG Version: 6.00 Build 0)  -->
<!DOCTYPE svg PUBLIC "-//W3C//DTD SVG 1.1//EN" "http://www.w3.org/Graphics/SVG/1.1/DTD/svg11.dtd">
<svg version="1.1" id="圖層_1" xmlns="http://www.w3.org/2000/svg" xmlns:xlink="http://www.w3.org/1999/xlink" x="0px" y="0px"
	 viewBox="-86.2 173.3 786.5 442.2" enable-background="new -86.2 173.3 786.5 442.2" xml:space="preserve">
<path fill="#E5E5E5" stroke="#000000" stroke-width="2" stroke-linejoin="round" stroke-miterlimit="10" d="M-87.1,615.5V173.3
	h787.4v442.2H-87.1z"/>
<path fill="none" stroke="#000000" stroke-width="2" stroke-linejoin="round" stroke-miterlimit="10" d="M306.6,629.4V160.7"/>
<path fill="none" stroke="#000000" stroke-width="2" stroke-linejoin="round" stroke-miterlimit="10" d="M306.6,445.1L306.6,445.1
	c-27.7,0-50.1-22.4-50.1-50.1l0,0c0-13.3,5.3-26,14.7-35.4s22.1-14.7,35.4-14.7l0,0c27.7,0,50.1,22.4,50.1,50.1l0,0
	C356.7,422.7,334.2,445.1,306.6,445.1z"/>
<path fill="none" stroke="#000000" stroke-width="2" stroke-linejoin="round" stroke-miterlimit="10" d="M-86.2,460.1V330.2H64.7
	v129.9H-86.2z"/>
<path fill="none" stroke="#000000" stroke-width="2" stroke-linejoin="round" stroke-miterlimit="10" d="M37.6,459.8v5.6"/>
<path fill="none" stroke="#000000" stroke-width="2" stroke-linejoin="round" stroke-miterlimit="10" d="M37.6,324.6v5.6"/>
<path fill="none" stroke="#000000" stroke-width="2" stroke-linejoin="round" stroke-miterlimit="10" d="M8.1,324.6v5.6"/>
<path fill="none" stroke="#000000" stroke-width="2" stroke-linejoin="round" stroke-miterlimit="10" d="M8.1,459.8v5.6"/>
<path fill="none" stroke="#000000" stroke-width="2" stroke-linejoin="round" stroke-miterlimit="10" d="M-44.2,324.6v5.6"/>
<path fill="none" stroke="#000000" stroke-width="2" stroke-linejoin="round" stroke-miterlimit="10" d="M-44.2,459.8v5.6"/>
<path stroke="#000000" stroke-width="2" stroke-linejoin="round" stroke-miterlimit="10" d="M-22.2,464.2V461h8.4v3.1h-8.4V464.2z"
	/>
<path stroke="#000000" stroke-width="2" stroke-linejoin="round" stroke-miterlimit="10" d="M-22.2,329v-3.1h8.4v3.1H-22.2z"/>
<path fill="none" stroke="#000000" stroke-width="2" stroke-linejoin="round" stroke-miterlimit="10" d="M-86.3,209.2h39l-3,0.1
	C0,207.5,48.9,226.4,85,261.4s56.5,83.3,56.3,133.6v-1.4c0.2,50.3-20.1,98.6-56.3,133.6S0,581.1-50.3,579.3l3,0.1h-39"/>
<path fill="none" stroke="#000000" stroke-width="2" stroke-linejoin="round" stroke-miterlimit="10" d="M64.1,343.6L64.1,343.6
	c28,0.8,50.3,23.8,50.1,51.9s-22.8,50.8-50.8,51.2"/>
<path fill="none" stroke="#073763" stroke-width="2" stroke-linejoin="round" stroke-miterlimit="10" d="M-43.8,360.3L-43.8,360.3
	c0.2,0,0.5,0,0.7,0"/>
<path fill="none" stroke="#000000" stroke-width="2" stroke-linejoin="round" stroke-miterlimit="10" d="M-56.3,420.1v-50.8"/>
<path fill="none" stroke="#000000" stroke-width="2" stroke-linejoin="round" stroke-miterlimit="10" d="M-44.3,402.5L-44.3,402.5
	c-4,0-7.3-3.3-7.3-7.3l0,0c0-1.9,0.8-3.8,2.1-5.2c1.4-1.4,3.2-2.1,5.2-2.1l0,0c4,0,7.3,3.3,7.3,7.3l0,0
	C-37,399.2-40.3,402.5-44.3,402.5z"/>
<path fill="none" stroke="#000000" stroke-width="2" stroke-linejoin="round" stroke-miterlimit="10" d="M-56.4,395.2h4.7"/>
<path fill="none" stroke="#000000" stroke-width="2" stroke-linejoin="round" stroke-miterlimit="10" d="M-42.4,429.9H-56"/>
<path fill="none" stroke="#000000" stroke-width="2" stroke-linejoin="round" stroke-miterlimit="10" d="M-43.8,360.3h-12.5"/>
<path fill="none" stroke="#000000" stroke-width="2" stroke-linejoin="round" stroke-miterlimit="10" d="M-43.8,360.3L-43.8,360.3
	c19.2,0,34.8,15.6,34.8,34.8s-15.6,34.8-34.8,34.8"/>
<path fill="none" stroke="#000000" stroke-width="2" stroke-linejoin="round" stroke-miterlimit="10" d="M699.9,460.1V330.2H549
	v129.9H699.9z"/>
<path fill="none" stroke="#000000" stroke-width="2" stroke-linejoin="round" stroke-miterlimit="10" d="M576.1,459.8v5.6"/>
<path fill="none" stroke="#000000" stroke-width="2" stroke-linejoin="round" stroke-miterlimit="10" d="M576.1,324.6v5.6"/>
<path fill="none" stroke="#000000" stroke-width="2" stroke-linejoin="round" stroke-miterlimit="10" d="M605.6,324.6v5.6"/>
<path fill="none" stroke="#000000" stroke-width="2" stroke-linejoin="round" stroke-miterlimit="10" d="M605.6,459.8v5.6"/>
<path fill="none" stroke="#000000" stroke-width="2" stroke-linejoin="round" stroke-miterlimit="10" d="M657.9,324.6v5.6"/>
<path fill="none" stroke="#000000" stroke-width="2" stroke-linejoin="round" stroke-miterlimit="10" d="M657.9,459.8v5.6"/>
<path stroke="#000000" stroke-width="2" stroke-linejoin="round" stroke-miterlimit="10" d="M635.9,464.2V461h-8.4v3.1h8.4V464.2z"
	/>
<path stroke="#000000" stroke-width="2" stroke-linejoin="round" stroke-miterlimit="10" d="M635.9,329v-3.1h-8.4v3.1H635.9z"/>
<path fill="none" stroke="#000000" stroke-width="2" stroke-linejoin="round" stroke-miterlimit="10" d="M700,209.2h-39l3,0.1
	c-50.3-1.8-99.2,17.1-135.3,52.1s-56.5,83.3-56.3,133.6v-1.4c-0.2,50.3,20.1,98.6,56.3,133.6c36.1,35,85,53.9,135.3,52.1l-3,0.1h39"
	/>
<path fill="none" stroke="#000000" stroke-width="2" stroke-linejoin="round" stroke-miterlimit="10" d="M549.7,343.6L549.7,343.6
	c-28,0.8-50.3,23.8-50.1,51.9c0.2,28.1,22.8,50.8,50.8,51.2"/>
<path fill="none" stroke="#073763" stroke-width="2" stroke-linejoin="round" stroke-miterlimit="10" d="M657.6,360.3L657.6,360.3
	c-0.2,0-0.5,0-0.7,0"/>
<path fill="none" stroke="#000000" stroke-width="2" stroke-linejoin="round" stroke-miterlimit="10" d="M670.1,420.1v-50.8"/>
<path fill="none" stroke="#000000" stroke-width="2" stroke-linejoin="round" stroke-miterlimit="10" d="M658.1,402.5L658.1,402.5
	c4,0,7.3-3.3,7.3-7.3l0,0c0-1.9-0.8-3.8-2.1-5.2s-3.2-2.1-5.2-2.1l0,0c-4,0-7.3,3.3-7.3,7.3l0,0C650.7,399.2,654,402.5,658.1,402.5z
	"/>
<path fill="none" stroke="#000000" stroke-width="2" stroke-linejoin="round" stroke-miterlimit="10" d="M670.2,395.2h-4.7"/>
<path fill="none" stroke="#000000" stroke-width="2" stroke-linejoin="round" stroke-miterlimit="10" d="M656.2,429.9h13.6"/>
<path fill="none" stroke="#000000" stroke-width="2" stroke-linejoin="round" stroke-miterlimit="10" d="M657.6,360.3h12.5"/>
<path fill="none" stroke="#000000" stroke-width="2" stroke-linejoin="round" stroke-miterlimit="10" d="M657.6,360.3L657.6,360.3
	c-19.2,0-34.8,15.6-34.8,34.8s15.6,34.8,34.8,34.8"/>
</svg>
